<mxfile host="app.diagrams.net" modified="2024-08-07T05:33:49.286Z" agent="Mozilla/5.0 (Windows NT 10.0; Win64; x64) AppleWebKit/537.36 (KHTML, like Gecko) Chrome/126.0.0.0 Safari/537.36 Edg/126.0.0.0" version="24.3.1" etag="dFzkLGfKsrT_631gFm0L" type="github">
  <diagram name="第 1 页" id="5vSi10IYWKKwUu39Mfgu">
    <mxGraphModel>
      <root>
        <mxCell id="0" />
        <mxCell id="1" parent="0" />
      </root>
    </mxGraphModel>
  </diagram>
</mxfile>
